<svg width="48" height="48" viewBox="0 0 48 48" fill="none" xmlns="http://www.w3.org/2000/svg">
<circle cx="24" cy="24" r="20" fill="#04DDB3"/>
<path d="M32.1637 20.2881L22.1637 30.2882C22.0766 30.3756 21.9731 30.4449 21.8592 30.4922C21.7452 30.5395 21.6231 30.5639 21.4997 30.5639C21.3763 30.5639 21.2541 30.5395 21.1402 30.4922C21.0262 30.4449 20.9227 30.3756 20.8356 30.2882L16.4606 25.9132C16.3734 25.8259 16.3042 25.7224 16.257 25.6085C16.2098 25.4945 16.1855 25.3724 16.1855 25.2491C16.1855 25.1258 16.2098 25.0036 16.257 24.8897C16.3042 24.7758 16.3734 24.6722 16.4606 24.585C16.5478 24.4978 16.6513 24.4286 16.7653 24.3814C16.8792 24.3343 17.0013 24.31 17.1247 24.31C17.248 24.31 17.3701 24.3343 17.4841 24.3814C17.598 24.4286 17.7015 24.4978 17.7887 24.585L21.5005 28.2967L30.8372 18.9616C31.0133 18.7855 31.2522 18.6865 31.5012 18.6865C31.7503 18.6865 31.9892 18.7855 32.1653 18.9616C32.3414 19.1377 32.4404 19.3766 32.4404 19.6256C32.4404 19.8747 32.3414 20.1136 32.1653 20.2897L32.1637 20.2881Z" fill="white"/>
</svg>
