<svg width="17" height="16" viewBox="0 0 17 16" fill="none" xmlns="http://www.w3.org/2000/svg">
<path d="M8.5 1.5C7.21442 1.5 5.95772 1.88122 4.8888 2.59545C3.81988 3.30968 2.98676 4.32484 2.49479 5.51256C2.00282 6.70028 1.87409 8.00721 2.1249 9.26809C2.3757 10.529 2.99477 11.6872 3.90381 12.5962C4.81285 13.5052 5.97104 14.1243 7.23192 14.3751C8.49279 14.6259 9.79973 14.4972 10.9874 14.0052C12.1752 13.5132 13.1903 12.6801 13.9046 11.6112C14.6188 10.5423 15 9.28558 15 8C14.9982 6.27665 14.3128 4.62441 13.0942 3.40582C11.8756 2.18722 10.2234 1.50182 8.5 1.5ZM8.5 13.5C7.41221 13.5 6.34884 13.1774 5.44437 12.5731C4.5399 11.9687 3.83495 11.1098 3.41867 10.1048C3.00238 9.09977 2.89347 7.9939 3.10568 6.927C3.3179 5.86011 3.84173 4.8801 4.61092 4.11091C5.3801 3.34172 6.36011 2.8179 7.42701 2.60568C8.4939 2.39346 9.59977 2.50238 10.6048 2.91866C11.6098 3.33494 12.4687 4.03989 13.0731 4.94436C13.6774 5.84883 14 6.9122 14 8C13.9983 9.45818 13.4184 10.8562 12.3873 11.8873C11.3562 12.9184 9.95819 13.4983 8.5 13.5ZM6.5 8C6.5 8.41976 6.63208 8.82889 6.87752 9.16942C7.12296 9.50995 7.46932 9.76463 7.86755 9.89737C8.26577 10.0301 8.69567 10.0342 9.09634 9.90903C9.49701 9.78387 9.84814 9.53581 10.1 9.2C10.1797 9.09391 10.2982 9.02381 10.4295 9.00512C10.5608 8.98642 10.6942 9.02066 10.8003 9.10031C10.9064 9.17996 10.9765 9.29849 10.9952 9.42982C11.0139 9.56116 10.9797 9.69454 10.9 9.80062C10.5221 10.3042 9.99539 10.6761 9.39441 10.8637C8.79344 11.0513 8.14866 11.0451 7.55142 10.8459C6.95417 10.6468 6.43472 10.2647 6.06663 9.75397C5.69854 9.24321 5.50047 8.62958 5.50047 8C5.50047 7.37042 5.69854 6.75679 6.06663 6.24603C6.43472 5.73526 6.95417 5.35324 7.55142 5.15407C8.14866 4.95491 8.79344 4.94868 9.39441 5.13628C9.99539 5.32389 10.5221 5.69581 10.9 6.19938C10.9394 6.2519 10.9681 6.31169 10.9845 6.37531C11.0008 6.43893 11.0045 6.50515 10.9952 6.57018C10.9859 6.63521 10.964 6.69778 10.9305 6.75431C10.8971 6.81085 10.8528 6.86025 10.8003 6.89969C10.7478 6.93913 10.688 6.96783 10.6244 6.98416C10.5608 7.0005 10.4945 7.00414 10.4295 6.99488C10.3645 6.98563 10.3019 6.96365 10.2454 6.93021C10.1888 6.89678 10.1394 6.85253 10.1 6.8C9.84814 6.46419 9.49701 6.21613 9.09634 6.09097C8.69567 5.96581 8.26577 5.96989 7.86755 6.10263C7.46932 6.23537 7.12296 6.49005 6.87752 6.83058C6.63208 7.17111 6.5 7.58024 6.5 8Z" fill="#353535"/>
</svg>
