<svg width="160" height="46" viewBox="0 0 160 46" fill="none" xmlns="http://www.w3.org/2000/svg">
<g clip-path="url(#clip0_332_263)">
<rect width="160" height="46" fill="white"/>
<path d="M0 0V16.7917H3.83753V3.76598H42.7427V42.236H16.744V46H46.5565V0H0Z" fill="#170293"/>
<path d="M8.97797 42.2341H8.93645C8.26097 42.2499 7.58947 42.1277 6.96412 41.875C6.33877 41.6224 5.77307 41.2448 5.30256 40.766C4.82891 40.3 4.45538 39.7445 4.20432 39.1326C3.95327 38.5207 3.82986 37.8651 3.84149 37.205V20.5675H0V37.2069C0.0207606 39.5367 0.969646 41.7647 2.64134 43.4088C4.31303 45.053 6.57309 45.9811 8.93249 45.9923H12.8867V42.236H8.97797V42.2341Z" fill="#00F8C9"/>
<path d="M70.8471 31.5415H70.8036C70.1286 31.5572 69.4576 31.435 68.8327 31.1828C68.2077 30.9305 67.6422 30.5534 67.1717 30.0753C66.6981 29.6088 66.3245 29.0529 66.0731 28.4408C65.8218 27.8286 65.6978 27.1728 65.7087 26.5123V9.87488H61.8691V26.5143C61.8914 28.8436 62.8408 31.0707 64.5122 32.7145C66.1835 34.3583 68.4427 35.2869 70.8016 35.2996H74.7657V31.5434H70.8471V31.5415Z" fill="#170293"/>
<path d="M87.4786 18.1799C85.0059 18.1799 82.9082 19.0136 81.1855 20.6808C80.3543 21.4583 79.6955 22.3975 79.2507 23.4393C78.8059 24.481 78.5848 25.6025 78.6015 26.7329C78.6015 29.2553 79.4457 31.3495 81.1341 33.0154C82.8199 34.7074 84.9123 35.5534 87.4114 35.5534C89.9302 35.5534 92.0569 34.7256 93.7914 33.0701C95.526 31.4145 96.3867 29.349 96.3735 26.8735C96.3735 24.4292 95.5168 22.3683 93.8033 20.6906C92.0714 19.0181 89.9631 18.1812 87.4786 18.1799ZM91.1441 30.456C90.6568 30.9267 90.0789 31.2963 89.4446 31.5431C88.8103 31.7899 88.1325 31.9088 87.4509 31.8929C86.7759 31.909 86.1047 31.7871 85.4797 31.5348C84.8547 31.2825 84.2892 30.9052 83.819 30.4267C83.3366 29.9515 82.9577 29.3839 82.7058 28.7587C82.4538 28.1335 82.3341 27.4641 82.354 26.7915C82.3427 26.1354 82.4697 25.4842 82.727 24.8792C82.9843 24.2742 83.3663 23.7287 83.8487 23.2774C84.8307 22.3459 86.1396 21.8257 87.5013 21.8257C88.863 21.8257 90.1719 22.3459 91.154 23.2774C92.1114 24.2334 92.6476 25.5242 92.6458 26.8687C92.6439 28.2132 92.1042 29.5026 91.1441 30.456Z" fill="#170293"/>
<path d="M160.001 18.6892H155.657L150.902 28.1481L145.805 18.6892H141.341L148.832 32.0839L142.877 43.2413H147.207L160.001 18.6892Z" fill="#170293"/>
<path d="M109.228 17.6763C107.388 17.6752 105.593 18.2349 104.088 19.2791V9.87488H100.248V26.6158C100.263 28.3661 100.802 30.0728 101.798 31.521C102.793 32.9691 104.201 34.0939 105.842 34.7535C107.484 35.413 109.287 35.5779 111.024 35.2274C112.76 34.8768 114.353 34.0265 115.601 32.7835C116.849 31.5406 117.697 29.9607 118.037 28.2429C118.377 26.5251 118.195 24.7463 117.513 23.1307C116.831 21.5151 115.68 20.1351 114.205 19.1644C112.73 18.1937 110.997 17.6759 109.224 17.6763H109.228ZM112.876 30.208C112.388 30.6788 111.811 31.0484 111.176 31.2952C110.542 31.5419 109.864 31.6609 109.183 31.6449C108.507 31.6611 107.836 31.5392 107.211 31.2869C106.586 31.0346 106.021 30.6573 105.551 30.1788C105.069 29.7045 104.691 29.1381 104.439 28.5144C104.187 27.8906 104.067 27.2227 104.086 26.5514C104.074 25.8956 104.2 25.2445 104.457 24.6396C104.713 24.0346 105.095 23.4889 105.576 23.0373C106.559 22.1029 107.87 21.5809 109.234 21.5809C110.598 21.5809 111.909 22.1029 112.892 23.0373C113.845 23.9927 114.378 25.2805 114.376 26.6217C114.375 27.9629 113.838 29.2494 112.882 30.2022L112.876 30.208Z" fill="#170293"/>
<path d="M131.024 17.6764C129.184 17.6751 127.389 18.2348 125.883 19.2792V9.875H122.042V26.6159C122.056 28.3667 122.595 30.074 123.591 31.5227C124.587 32.9715 125.994 34.0968 127.636 34.7568C129.279 35.4168 131.082 35.582 132.819 35.2316C134.556 34.8812 136.149 34.0308 137.398 32.7877C138.646 31.5445 139.494 29.9643 139.835 28.246C140.175 26.5278 139.993 24.7486 139.311 23.1325C138.628 21.5164 137.477 20.1359 136.002 19.165C134.526 18.194 132.793 17.676 131.02 17.6764H131.024ZM134.672 30.2082C134.184 30.6789 133.606 31.0485 132.972 31.2953C132.338 31.5421 131.66 31.661 130.978 31.6451C130.303 31.6612 129.632 31.5393 129.007 31.287C128.382 31.0347 127.817 30.6574 127.347 30.1789C126.367 29.2144 125.879 28.0027 125.881 26.5437C125.87 25.8876 125.997 25.2364 126.255 24.6314C126.512 24.0264 126.894 23.4809 127.376 23.0296C128.359 22.0952 129.67 21.5732 131.034 21.5732C132.398 21.5732 133.709 22.0952 134.691 23.0296C135.645 23.985 136.178 25.2728 136.176 26.614C136.174 27.9552 135.637 29.2417 134.682 30.1945L134.672 30.2082Z" fill="#170293"/>
</g>
<defs>
<clipPath id="clip0_332_263">
<rect width="160" height="46" fill="white"/>
</clipPath>
</defs>
</svg>
